<svg xmlns="http://www.w3.org/2000/svg" viewBox="0 0 100 100" width="100%" height="100%">
  <!-- Background Shield shape or base -->
  <path d="M50,15 L80,25 C80,55 50,85 50,85 C50,85 20,55 20,25 Z" fill="#0D2B5C" stroke="#EF9F27" stroke-width="4" stroke-linejoin="round"/>
  <!-- Decorative book/ribbon or fork/spoon in gold -->
  <!-- Fork shape -->
  <path d="M42,35 L42,48 M45,35 L45,48 M48,35 L48,48 M42,48 C42,52 48,52 48,48 L48,58 M45,48 L45,58" stroke="#EF9F27" stroke-width="2" stroke-linecap="round" fill="none"/>
  <!-- Spoon shape -->
  <path d="M58,35 C55,35 53,38 53,42 C53,46 55,48 58,48 L58,58" stroke="#EF9F27" stroke-width="2" stroke-linecap="round" fill="none"/>
  <ellipse cx="58" cy="41" rx="3" ry="5" fill="#EF9F27"/>
  <!-- University Stars -->
  <polygon points="50,22 52,26 56,26 53,29 54,33 50,31 46,33 47,29 44,26 48,26" fill="#EF9F27" />
</svg>
